{"accessors":[{"bufferView":2,"componentType":5126,"count":658,"max":[1.4431476593017578,1.3770354986190796,2.8131000995635986],"min":[-1.4431476593017578,-1.465410590171814,-0.04873419925570488],"type":"VEC3"},{"bufferView":2,"byteOffset":7896,"componentType":5126,"count":658,"max":[0.9847988486289978,0.9484291076660156,1],"min":[-0.9847988486289978,-0.9999872446060181,-0.9993246793746948],"type":"VEC3"},{"bufferView":3,"componentType":5126,"count":658,"max":[0,0,0,1],"min":[0,0,0,1],"type":"VEC4"},{"bufferView":1,"componentType":5126,"count":658,"max":[0,0],"min":[0,0],"type":"VEC2"},{"bufferView":0,"componentType":5125,"count":2295,"max":[657],"min":[0],"type":"SCALAR"},{"bufferView":2,"byteOffset":15792,"componentType":5126,"count":63,"max":[1.1180825233459473,1.0668619871139526,2.5339195728302],"min":[-1.1180824041366577,-1.1353307962417603,1.749756097793579],"type":"VEC3"},{"bufferView":2,"byteOffset":16548,"componentType":5126,"count":63,"max":[0.9139900207519531,0.8721230030059814,0.37236839532852173],"min":[-0.9139900207519531,-0.9280868768692017,-0.9531136155128479],"type":"VEC3"},{"bufferView":3,"byteOffset":10528,"componentType":5126,"count":63,"max":[0,0,0,1],"min":[0,0,0,1],"type":"VEC4"},{"bufferView":1,"byteOffset":5264,"componentType":5126,"count":63,"max":[0,0],"min":[0,0],"type":"VEC2"},{"bufferView":0,"byteOffset":9180,"componentType":5125,"count":366,"max":[62],"min":[0],"type":"SCALAR"},{"bufferView":2,"byteOffset":17304,"componentType":5126,"count":264,"max":[-0.29477182030677795,2.77504563331604,3.508387804031372],"min":[-1.5762956142425537,1.456430196762085,2.9009623527526855],"type":"VEC3"},{"bufferView":2,"byteOffset":20472,"componentType":5126,"count":264,"max":[0.7594950795173645,0.5855275988578796,0.9283686876296997],"min":[-0.7515531182289124,-0.5855284929275513,-0.9718713164329529],"type":"VEC3"},{"bufferView":3,"byteOffset":11536,"componentType":5126,"count":264,"max":[0.9995625019073486,0.6110814809799194,0.7607613801956177,1],"min":[-0.4862247705459595,-0.00001341016741207568,-0.6849552392959595,-1],"type":"VEC4"},{"bufferView":1,"byteOffset":5768,"componentType":5126,"count":264,"max":[0.9900000095367432,0.49000000953674316],"min":[0.01000000536441803,0.01000000536441803],"type":"VEC2"},{"bufferView":0,"byteOffset":10644,"componentType":5125,"count":396,"max":[263],"min":[0],"type":"SCALAR"},{"bufferView":2,"byteOffset":23640,"componentType":5126,"count":83,"max":[1.536503791809082,0.9523782730102539,1.0494298934936523],"min":[-2.600135087966919,-1.047621726989746,-0.9507583975791931],"type":"VEC3"},{"bufferView":2,"byteOffset":24636,"componentType":5126,"count":83,"max":[0.9541781544685364,0.7953240275382996,0.9994990825653076],"min":[-0.9448720812797546,-0.7953240275382996,-0.9167510867118835],"type":"VEC3"},{"bufferView":3,"byteOffset":15760,"componentType":5126,"count":83,"max":[0.9999991059303284,0.9998950362205505,0.39945918321609497,1],"min":[-0.9901171326637268,-0.9997633099555969,-0.9448722004890442,-1],"type":"VEC4"},{"bufferView":1,"byteOffset":7880,"componentType":5126,"count":83,"max":[1,1],"min":[0,0.01000000536441803],"type":"VEC2"},{"bufferView":0,"byteOffset":12228,"componentType":5125,"count":276,"max":[82],"min":[0],"type":"SCALAR"},{"bufferView":2,"byteOffset":25632,"componentType":5126,"count":157,"max":[1.5663273334503174,0.9523782730102539,1.0501232147216797],"min":[-2.600135087966919,-1.047621726989746,-0.9507583975791931],"type":"VEC3"},{"bufferView":2,"byteOffset":27516,"componentType":5126,"count":157,"max":[0.9958500862121582,0.9999603033065796,0.9999995827674866],"min":[-0.9958500862121582,-0.9999605417251587,-0.9999995827674866],"type":"VEC3"},{"bufferView":3,"byteOffset":17088,"componentType":5126,"count":157,"max":[0.9999995827674866,1,0.14779327809810638,1],"min":[-0.9999997019767761,-1,-0.14445719122886658,-1],"type":"VEC4"},{"bufferView":1,"byteOffset":8544,"componentType":5126,"count":157,"max":[1,1],"min":[0,0.01000000536441803],"type":"VEC2"},{"bufferView":0,"byteOffset":13332,"componentType":5125,"count":480,"max":[156],"min":[0],"type":"SCALAR"},{"bufferView":2,"byteOffset":29400,"componentType":5126,"count":176,"max":[1,1,1.0000003576278687],"min":[-1,7.549790126404332e-8,-1.0000001192092896],"type":"VEC3"},{"bufferView":2,"byteOffset":31512,"componentType":5126,"count":176,"max":[0.9951847195625305,0.7278809547424316,1],"min":[-0.9951847791671753,-1,-1],"type":"VEC3"},{"bufferView":3,"byteOffset":19600,"componentType":5126,"count":176,"max":[1,0.9951847791671753,0.43784525990486145,1],"min":[-0.9977272748947144,-0.9951846599578857,-1,-1],"type":"VEC4"},{"bufferView":1,"byteOffset":9800,"componentType":5126,"count":176,"max":[1,1],"min":[0,0.2500000298023224],"type":"VEC2"},{"bufferView":0,"byteOffset":15252,"componentType":5125,"count":396,"max":[175],"min":[0],"type":"SCALAR"},{"bufferView":2,"byteOffset":33624,"componentType":5126,"count":184,"max":[1,1.0012133121490479,1.102436900138855],"min":[-1,7.549790126404332e-8,-1.0806224346160889],"type":"VEC3"},{"bufferView":2,"byteOffset":35832,"componentType":5126,"count":184,"max":[0.9951847195625305,0.9951847791671753,1],"min":[-0.9999978542327881,-1,-1],"type":"VEC3"},{"bufferView":3,"byteOffset":22416,"componentType":5126,"count":184,"max":[1,0.9951847195625305,4.7482839704571234e-7,1],"min":[-0.9951847791671753,-0.9951847195625305,-1,-1],"type":"VEC4"},{"bufferView":1,"byteOffset":11208,"componentType":5126,"count":184,"max":[1,1],"min":[0,0.2500000298023224],"type":"VEC2"},{"bufferView":0,"byteOffset":16836,"componentType":5125,"count":294,"max":[183],"min":[0],"type":"SCALAR"},{"bufferView":2,"byteOffset":38040,"componentType":5126,"count":73,"max":[0.9510578513145447,0.9999999403953552,1],"min":[-0.9510578513145447,-0.9999999403953552,-0.832773745059967],"type":"VEC3"},{"bufferView":2,"byteOffset":38916,"componentType":5126,"count":73,"max":[0.9510607719421387,1,1],"min":[-0.9510607719421387,-1,-0.9999953508377075],"type":"VEC3"},{"bufferView":3,"byteOffset":25360,"componentType":5126,"count":73,"max":[0.9989534616470337,1,0.2672096788883209,-1],"min":[-0.9989534616470337,-1,-0.27757689356803894,-1],"type":"VEC4"},{"bufferView":1,"byteOffset":12680,"componentType":5126,"count":73,"max":[1,0.4723820090293884],"min":[0,0],"type":"VEC2"},{"bufferView":0,"byteOffset":18012,"componentType":5125,"count":270,"max":[72],"min":[0],"type":"SCALAR"},{"bufferView":2,"byteOffset":39792,"componentType":5126,"count":151,"max":[0.7628380656242371,0.0029597505927085876,-0.8632112741470337],"min":[-0.013596897944808006,-0.18385151028633118,-2.3547544479370117],"type":"VEC3"},{"bufferView":2,"byteOffset":41604,"componentType":5126,"count":151,"max":[0.9702828526496887,0.9998893737792969,0.9241742491722107],"min":[-0.979282796382904,-0.9990057349205017,-0.9628750681877136],"type":"VEC3"},{"bufferView":3,"byteOffset":26528,"componentType":5126,"count":151,"max":[0.9785045981407166,0.999126136302948,0.8648074269294739,1],"min":[-0.9970593452453613,-0.9998136758804321,-0.7223720550537109,-1],"type":"VEC4"},{"bufferView":1,"byteOffset":13264,"componentType":5126,"count":151,"max":[1,1.0000001192092896],"min":[0,0.01000000536441803],"type":"VEC2"},{"bufferView":0,"byteOffset":19092,"componentType":5125,"count":660,"max":[150],"min":[0],"type":"SCALAR"},{"bufferView":2,"byteOffset":43416,"componentType":5126,"count":73,"max":[0.9510578513145447,0.9999999403953552,1],"min":[-0.9510578513145447,-0.9999999403953552,-0.832773745059967],"type":"VEC3"},{"bufferView":2,"byteOffset":44292,"componentType":5126,"count":73,"max":[0.9510607719421387,1,1],"min":[-0.9510607719421387,-1,-0.9999953508377075],"type":"VEC3"},{"bufferView":3,"byteOffset":28944,"componentType":5126,"count":73,"max":[0.9989534616470337,1,0.2672096788883209,-1],"min":[-0.9989534616470337,-1,-0.27757689356803894,-1],"type":"VEC4"},{"bufferView":1,"byteOffset":14472,"componentType":5126,"count":73,"max":[1,0.4723820090293884],"min":[0,0],"type":"VEC2"},{"bufferView":0,"byteOffset":21732,"componentType":5125,"count":270,"max":[72],"min":[0],"type":"SCALAR"},{"bufferView":2,"byteOffset":45168,"componentType":5126,"count":151,"max":[0.7628380656242371,0.0029597505927085876,-0.8632112741470337],"min":[-0.013596897944808006,-0.18385151028633118,-2.3547544479370117],"type":"VEC3"},{"bufferView":2,"byteOffset":46980,"componentType":5126,"count":151,"max":[0.9702828526496887,0.9998893737792969,0.9241742491722107],"min":[-0.979282796382904,-0.9990057349205017,-0.9628750681877136],"type":"VEC3"},{"bufferView":3,"byteOffset":30112,"componentType":5126,"count":151,"max":[0.9785045981407166,0.999126136302948,0.8648074269294739,1],"min":[-0.9970593452453613,-0.9998136758804321,-0.7223720550537109,-1],"type":"VEC4"},{"bufferView":1,"byteOffset":15056,"componentType":5126,"count":151,"max":[1,1.0000001192092896],"min":[0,0.01000000536441803],"type":"VEC2"},{"bufferView":0,"byteOffset":22812,"componentType":5125,"count":660,"max":[150],"min":[0],"type":"SCALAR"}],"asset":{"extras":{"author":"Jay (https://sketchfab.com/jstaggs)","license":"CC-BY-4.0 (http://creativecommons.org/licenses/by/4.0/)","source":"https://sketchfab.com/3d-models/tropical-drink-22e4bee9f7c84e49aad9d85d1233f241","title":"Tropical Drink"},"generator":"Sketchfab-6.63.1","version":"2.0"},"bufferViews":[{"buffer":0,"byteLength":25452,"byteOffset":0,"name":"floatBufferViews","target":34963},{"buffer":0,"byteLength":16264,"byteOffset":25452,"byteStride":8,"name":"floatBufferViews","target":34962},{"buffer":0,"byteLength":48792,"byteOffset":41716,"byteStride":12,"name":"floatBufferViews","target":34962},{"buffer":0,"byteLength":32528,"byteOffset":90508,"byteStride":16,"name":"floatBufferViews","target":34962}],"buffers":[{"byteLength":123036,"uri":"data:application/octet-stream;base64,"}],"materials":[{"alphaMode":"BLEND","doubleSided":true,"emissiveFactor":[0,0,0],"name":"glass","pbrMetallicRoughness":{"baseColorFactor":[0.0882846,0.157126,0.253053,0.45626720081676136],"metallicFactor":0.47444901899857955,"roughnessFactor":0.0891873446377841}},{"alphaMode":"BLEND","doubleSided":true,"name":"drink","pbrMetallicRoughness":{"baseColorFactor":[0.562961,0.043252399999999976,0.007494979999999995,0.7108126553622159],"metallicFactor":0.11687326142282196,"roughnessFactor":0.3376721931226325}},{"doubleSided":true,"emissiveFactor":[0,0,0],"name":"umbrella","pbrMetallicRoughness":{"baseColorFactor":[0.5039649999999998,0,0.1412080000000001,1],"metallicFactor":0,"roughnessFactor":0.819903564453125}},{"doubleSided":true,"emissiveFactor":[0,0,0],"name":"stick","pbrMetallicRoughness":{"baseColorFactor":[0.187816,0.156915,0.115009,1],"metallicFactor":0,"roughnessFactor":0.9799610323523498}},{"doubleSided":true,"emissiveFactor":[0,0,0],"name":"straw","pbrMetallicRoughness":{"baseColorFactor":[0.608632,0.672397,0.732477,1],"metallicFactor":0,"roughnessFactor":0.8399322603640006}},{"doubleSided":true,"emissiveFactor":[0,0,0],"name":"material_0","pbrMetallicRoughness":{"baseColorFactor":[0.871355,0.227716,0.00012405499999999976,1],"metallicFactor":0.09869144324100379,"roughnessFactor":0.7073691628196023}},{"doubleSided":true,"emissiveFactor":[0,0,0],"name":"orangecenter","pbrMetallicRoughness":{"baseColorFactor":[0.805511,0.271398,0,1],"metallicFactor":0,"roughnessFactor":0.7194903749408144}},{"doubleSided":true,"emissiveFactor":[0,0,0],"name":"cherry","pbrMetallicRoughness":{"baseColorFactor":[0.46413999999999994,0.006125089999999999,0.03063120000000001,1],"metallicFactor":0.2805096250591856,"roughnessFactor":0.42858128403172346}},{"doubleSided":true,"emissiveFactor":[0,0,0],"name":"cherrystem","pbrMetallicRoughness":{"baseColorFactor":[0.0394213,0.0190367,0.002798310000000001,1],"metallicFactor":0,"roughnessFactor":0.6986914432410037}},{"doubleSided":true,"emissiveFactor":[0,0,0],"name":"cherry.001","pbrMetallicRoughness":{"baseColorFactor":[0.46413999999999994,0.006125089999999999,0.03063120000000001,1],"metallicFactor":0.09263083718039773,"roughnessFactor":0.3982782537286932}},{"doubleSided":true,"emissiveFactor":[0,0,0],"name":"cherrystem.001","pbrMetallicRoughness":{"baseColorFactor":[0.0394213,0.0190367,0.002798310000000001,1],"metallicFactor":0,"roughnessFactor":0.6805096250591856}}],"meshes":[{"name":"glass_glass_0","primitives":[{"attributes":{"NORMAL":1,"POSITION":0,"TANGENT":2,"TEXCOORD_0":3},"indices":4,"material":0,"mode":4}]},{"name":"drink_drink_0","primitives":[{"attributes":{"NORMAL":6,"POSITION":5,"TANGENT":7,"TEXCOORD_0":8},"indices":9,"material":1,"mode":4}]},{"name":"umbrellatop_umbrella_0","primitives":[{"attributes":{"NORMAL":11,"POSITION":10,"TANGENT":12,"TEXCOORD_0":13},"indices":14,"material":2,"mode":4}]},{"name":"umbrellastick_stick_0","primitives":[{"attributes":{"NORMAL":16,"POSITION":15,"TANGENT":17,"TEXCOORD_0":18},"indices":19,"material":3,"mode":4}]},{"name":"straw_straw_0","primitives":[{"attributes":{"NORMAL":21,"POSITION":20,"TANGENT":22,"TEXCOORD_0":23},"indices":24,"material":4,"mode":4}]},{"name":"orangerind_orangerind_0","primitives":[{"attributes":{"NORMAL":26,"POSITION":25,"TANGENT":27,"TEXCOORD_0":28},"indices":29,"material":5,"mode":4}]},{"name":"orangecenter_orangecenter_0","primitives":[{"attributes":{"NORMAL":31,"POSITION":30,"TANGENT":32,"TEXCOORD_0":33},"indices":34,"material":6,"mode":4}]},{"name":"cherry_cherry_0","primitives":[{"attributes":{"NORMAL":36,"POSITION":35,"TANGENT":37,"TEXCOORD_0":38},"indices":39,"material":7,"mode":4}]},{"name":"cherrystem_cherrystem_0","primitives":[{"attributes":{"NORMAL":41,"POSITION":40,"TANGENT":42,"TEXCOORD_0":43},"indices":44,"material":8,"mode":4}]},{"name":"cherry2_cherry.001_0","primitives":[{"attributes":{"NORMAL":46,"POSITION":45,"TANGENT":47,"TEXCOORD_0":48},"indices":49,"material":9,"mode":4}]},{"name":"cherrystem2_cherrystem.001_0","primitives":[{"attributes":{"NORMAL":51,"POSITION":50,"TANGENT":52,"TEXCOORD_0":53},"indices":54,"material":10,"mode":4}]}],"nodes":[{"children":[1],"name":"RootNode (gltf orientation matrix)","rotation":[-0.7071067811865475,0,0,0.7071067811865476]},{"children":[2],"name":"RootNode (model correction matrix)"},{"children":[3],"matrix":[1,0,0,0,0,0,1,0,0,-1,0,0,0,0,0,1],"name":"c64ef23c72164caa852fc3ec174962dd.fbx"},{"children":[4,7,9,11,13,15,17,19,21,23,25,27,29],"name":"RootNode"},{"children":[5],"matrix":[-29.08647719990347,-5.518906457566863,-95.51711910171437,0,56.63930913109449,79.46723428563203,-21.83912397841966,0,77.11008775993375,-60.45246356562044,-19.98834696773717,0,407.6245422363281,590.38623046875,-100.54539489746094,1],"name":"Light"},{"children":[6],"matrix":[1,0,0,0,0,2.220446049250313e-16,1,0,0,-1,2.220446049250313e-16,0,0,0,0,1],"name":""},{"name":""},{"children":[8],"matrix":[-65.15583280329096,-44.52713576570858,-61.41703047373549,0,-32.40134137821245,89.53957451233616,-30.542088974418615,0,68.59205472129975,-0.000010718647115348782,-72.7676336239627,0,735.88916015625,495.8309326171875,692.5791015625,1],"name":"Camera"},{"name":""},{"children":[10],"matrix":[100,0,0,0,0,-0.00001629206793918314,-99.99999999999868,0,0,99.99999999999868,-0.00001629206793918314,0,0,0,0,1],"name":"glass"},{"mesh":0,"name":"glass_glass_0"},{"children":[12],"matrix":[100,0,0,0,0,-0.42491271658302276,-99.99910487130498,0,0,121.58432107905259,-0.5166318661561087,0,0,-56.06339645385742,-0.3937801420688629,1],"name":"drink"},{"mesh":1,"name":"drink_drink_0"},{"children":[14],"matrix":[128.78829589425587,6.066070557956981,0.000001018600132279033,0,0.0000020057604557600708,-0.00002093435260456507,-128.93107604980298,0,-6.066070557956736,128.7882958942542,-0.000021005538504754063,0,26.532581329345703,-55.50090026855469,258.3984375,1],"name":"umbrellatop"},{"mesh":2,"name":"umbrellatop_umbrella_0"},{"children":[16],"matrix":[2.4469236615756955,0.8321790407100942,2.6867769586673715e-8,0,-3.619705013430847e-8,1.8721426915798135e-7,-2.502045154571526,0,-27.597870182409522,81.1482604762662,0.000006471135713162916,0,-100.00979614257812,301.8406982421875,-12.617265701293945,1],"name":"umbrellastick"},{"mesh":3,"name":"umbrellastick_stick_0"},{"children":[18],"matrix":[-3.7177839544618636,-0.6399186603798553,0.6752596965629982,0,0.8691562563748171,-1.6837765222622163,3.1896693647321874,0,-5.606721652208923,77.1758162344508,42.2676864738552,0,9.974342346191406,274.78314208984375,103.51644897460938,1],"name":"straw"},{"mesh":4,"name":"straw_straw_0"},{"children":[20],"matrix":[53.474551299981336,33.977938944589646,-30.19150221270362,0,-31.705494972150003,61.286609177626296,12.816704006730735,0,7.046066161314007,0.8380393717424004,13.422984857042106,0,-100.0000228881836,258.1647033691406,67.79042053222656,1],"name":"orangerind"},{"mesh":5,"name":"orangerind_orangerind_0"},{"children":[22],"matrix":[46.971548109605365,29.84590529517138,-26.519934514827067,0,-27.84981338548818,53.83359036424143,11.25807419559376,0,6.260907428173839,0.7446547914142284,11.927231972520591,0,-100.00438690185547,258.1731262207031,67.79218292236328,1],"name":"orangecenter"},{"mesh":6,"name":"orangecenter_orangecenter_0"},{"children":[24],"matrix":[-18.843518887750964,-2.1268850833732387,0.07372767880161206,0,-0.07951734340481202,1.3601555299469055,18.91430692008785,0,2.1266767106621316,-18.79451218327641,1.360481643327965,0,-90.23100280761719,261.2253112792969,22.21354866027832,1],"name":"cherry"},{"mesh":7,"name":"cherry_cherry_0"},{"children":[26],"matrix":[-18.843518872279706,-2.1268852238107505,0.07372758166705258,0,-0.07951744981171512,1.3601555184880358,18.914306920464526,0,3.2642742251366927,-28.848032000966626,2.0882275439217173,0,-87.39827728271484,245.955078125,24.969789505004883,1],"name":"cherrystem"},{"mesh":8,"name":"cherrystem_cherrystem_0"},{"children":[28],"matrix":[-10.601011644172017,-2.2995380454831835,17.39799315551844,0,17.37642775432131,1.470563670892952,10.782239560066536,0,2.457192974549402,-20.32016000327444,-1.1885422357520896,0,-45.93888473510742,256.1153564453125,71.1844482421875,1],"name":"cherry2"},{"mesh":9,"name":"cherry2_cherry.001_0"},{"children":[30],"matrix":[-10.601009754369505,-2.2995369739524625,17.397994448646948,0,17.37642821934262,1.4705701747097457,10.782237923606091,0,3.771598078233281,-31.18978613653243,-1.8243090321357365,0,-41.79634475708008,239.60552978515625,70.1358642578125,1],"name":"cherrystem2"},{"mesh":10,"name":"cherrystem2_cherrystem.001_0"}],"scene":0,"scenes":[{"name":"OSG_Scene","nodes":[0]}]}